<?xml version="1.0" encoding="UTF-8"?>
<svg width="36px" height="27px" viewBox="0 0 36 27" version="1.1" xmlns="http://www.w3.org/2000/svg" xmlns:xlink="http://www.w3.org/1999/xlink">
    <title>phone</title>
    <g id="Page-1" stroke="none" stroke-width="1" fill="none" fill-rule="evenodd">
        <g id="Video-Call" transform="translate(-4.000000, -648.000000)" fill="#47911E" fill-rule="nonzero">
            <g id="phone" transform="translate(4.000000, 648.128428)">
                <path d="M36,23.7313863 L36,2.01175728 C36,0.2781871 34.018349,0 33.5,0 C32.981651,0 31,0.27750783 31,2.01175728 L31,23.7313108 C31,25.464881 32.9252459,25.7773226 33.5,25.7773226 C34.0747541,25.7773226 36,25.4656357 36,23.7313863 Z" id="Path"></path>
                <path d="M26,23.7313863 L26,8.01175728 C26,6.2781871 24.018349,6 23.5,6 C22.981651,6 21,6.27750783 21,8.01175728 L21,23.7313108 C21,25.464881 22.9252459,25.7773226 23.5,25.7773226 C24.0747541,25.7773226 26,25.4656357 26,23.7313863 Z" id="Path-Copy"></path>
                <path d="M16,23.7313863 L16,13.0117573 C16,11.2781871 14.018349,11 13.5,11 C12.981651,11 11,11.2775078 11,13.0117573 L11,23.7313108 C11,25.464881 12.9252459,25.7773226 13.5,25.7773226 C14.0747541,25.7773226 16,25.4656357 16,23.7313863 Z" id="Path-Copy-2"></path>
                <path d="M6,23.7313863 L6,17.0117573 C6,15.2781871 4.01834902,15 3.5,15 C2.98165098,15 1,15.2775078 1,17.0117573 L1,23.7313108 C1,25.464881 2.92524595,25.7773226 3.5,25.7773226 C4.07475405,25.7773226 6,25.4656357 6,23.7313863 Z" id="Path-Copy-3"></path>
            </g>
        </g>
    </g>
</svg>