<?xml version="1.0" encoding="UTF-8"?>
<svg width="198px" height="139px" viewBox="0 0 198 139" version="1.1" xmlns="http://www.w3.org/2000/svg" xmlns:xlink="http://www.w3.org/1999/xlink">
    <title>61E618DA-F9D4-4E50-889C-7BC4A1364736</title>
    <defs>
        <linearGradient x1="21.1679356%" y1="-30.3813752%" x2="81.1339936%" y2="122.967987%" id="linearGradient-1">
            <stop stop-color="#C98200" offset="0%"></stop>
            <stop stop-color="#E83E44" offset="100%"></stop>
        </linearGradient>
        <polygon id="path-2" points="0 0 3.66143735 0 3.66143735 11.4236113 0 11.4236113"></polygon>
        <polygon id="path-4" points="0 0 3.66143735 0 3.66143735 11.4236113 0 11.4236113"></polygon>
        <polygon id="path-6" points="0 0 50.3131287 0 50.3131287 12.6261006 0 12.6261006"></polygon>
        <polygon id="path-8" points="0 57.5343619 54.707 57.5343619 54.707 0 0 0"></polygon>
        <polygon id="path-10" points="0.393407368 0.0934662162 6.96227053 0.0934662162 6.96227053 6.70417297 0.393407368 6.70417297"></polygon>
    </defs>
    <g id="Page-1" stroke="none" stroke-width="1" fill="none" fill-rule="evenodd">
        <g id="Patient-In-clinic-9" transform="translate(-626.000000, -249.000000)">
            <g id="Group-4" transform="translate(220.000000, 198.000000)">
                <g id="icon_success" transform="translate(408.000000, 53.000000)">
                    <g id="Group-52">
                        <path d="M143.186292,78.9923581 C143.186292,107.164338 120.295211,130.002183 92.0575605,130.002183 C63.8199101,130.002183 40.9288291,107.164338 40.9288291,78.9923581 C40.9288291,50.8203778 63.8199101,27.9825328 92.0575605,27.9825328 C120.295211,27.9825328 143.186292,50.8203778 143.186292,78.9923581" id="Fill-10" fill="url(#linearGradient-1)"></path>
                        <g id="Group-14" transform="translate(67.000000, 50.000000)">
                            <g id="Group-3" transform="translate(10.070271, 0.000000)">
                                <mask id="mask-3" fill="white">
                                    <use xlink:href="#path-2"></use>
                                </mask>
                                <g id="Clip-2"></g>
                                <path d="M1.83071867,11.4236113 C2.84200767,11.4236113 3.66143735,10.6041816 3.66143735,9.59289262 L3.66143735,1.83064545 C3.66143735,0.820088737 2.84200767,-7.3228747e-05 1.83071867,-7.3228747e-05 C0.819429679,-7.3228747e-05 0,0.820088737 0,1.83064545 L0,9.59289262 C0,10.6041816 0.819429679,11.4236113 1.83071867,11.4236113" id="Fill-1" fill="#FEFEFE" mask="url(#mask-3)"></path>
                            </g>
                            <g id="Group-6" transform="translate(36.110047, 0.000000)">
                                <mask id="mask-5" fill="white">
                                    <use xlink:href="#path-4"></use>
                                </mask>
                                <g id="Clip-5"></g>
                                <path d="M1.83071867,11.4236113 C2.84200767,11.4236113 3.66143735,10.6041816 3.66143735,9.59289262 L3.66143735,1.83064545 C3.66143735,0.820088737 2.84200767,-7.3228747e-05 1.83071867,-7.3228747e-05 C0.819429679,-7.3228747e-05 0,0.820088737 0,1.83064545 L0,9.59289262 C0,10.6041816 0.819429679,11.4236113 1.83071867,11.4236113" id="Fill-4" fill="#FEFEFE" mask="url(#mask-5)"></path>
                            </g>
                            <g id="Group-9" transform="translate(0.000000, 5.612471)">
                                <mask id="mask-7" fill="white">
                                    <use xlink:href="#path-6"></use>
                                </mask>
                                <g id="Clip-8"></g>
                                <path d="M50.3131287,4.20992066 C50.3131287,1.88417566 48.4289531,0 46.1039403,0 L41.601837,0 L41.601837,3.98071469 C41.601837,6.00256039 39.9622453,7.64215203 37.9403996,7.64215203 C35.9178216,7.64215203 34.2789623,6.00256039 34.2789623,3.98071469 L34.2789623,0 L15.5616946,0 L15.5616946,3.98071469 C15.5616946,6.00256039 13.9228352,7.64215203 11.9002572,7.64215203 C9.87767922,7.64215203 8.23881986,6.00256039 8.23881986,3.98071469 L8.23881986,0 L4.20977421,0 C1.88476149,0 -0.000146457494,1.88417566 -0.000146457494,4.20992066 L-0.000146457494,12.6261006 L50.3131287,12.6261006 L50.3131287,4.20992066 Z" id="Fill-7" fill="#FEFEFE" mask="url(#mask-7)"></path>
                            </g>
                            <path d="M51.7777037,24.0970176 L51.7777037,50.3956575 C51.7777037,52.7206702 49.893528,54.6048459 47.5685153,54.6048459 L5.67434915,54.6048459 C5.28477221,54.6048459 4.90837645,54.5477275 4.55028788,54.4488687 C5.04311735,56.2268626 6.66806324,57.5339958 8.60349902,57.5339958 L50.4976652,57.5339958 C52.8226779,57.5339958 54.7068535,55.6498201 54.7068535,53.3248074 L51.7777037,24.0970176 Z" id="Fill-10" fill="#FEFEFE"></path>
                            <mask id="mask-9" fill="white">
                                <use xlink:href="#path-8"></use>
                            </mask>
                            <g id="Clip-13"></g>
                            <path d="M34.5771497,33.6310343 L43.488356,33.6310343 L43.488356,26.4472943 L34.5771497,26.4472943 L34.5771497,33.6310343 Z M34.5771497,44.6153464 L43.488356,44.6153464 L43.488356,37.4316063 L34.5771497,37.4316063 L34.5771497,44.6153464 Z M20.878248,33.6310343 L29.7894543,33.6310343 L29.7894543,26.4472943 L20.878248,26.4472943 L20.878248,33.6310343 Z M20.878248,44.6153464 L29.7894543,44.6153464 L29.7894543,37.4316063 L20.878248,37.4316063 L20.878248,44.6153464 Z M7.31189039,33.6310343 L16.2223643,33.6310343 L16.2223643,26.4472943 L7.31189039,26.4472943 L7.31189039,33.6310343 Z M7.31189039,44.6153464 L16.2223643,44.6153464 L16.2223643,37.4316063 L7.31189039,37.4316063 L7.31189039,44.6153464 Z M50.5563946,48.1991613 L50.5563946,20.4359464 L0.24311944,20.4359464 L0.24311944,48.1991613 C0.24311944,50.5234417 2.12802739,52.4083496 4.4530401,52.4083496 L46.3472062,52.4083496 C48.672219,52.4083496 50.5563946,50.5234417 50.5563946,48.1991613 L50.5563946,48.1991613 Z" id="Fill-12" fill="#FEFEFE" mask="url(#mask-9)"></path>
                        </g>
                        <path d="M119.228829,30.8973799 C135.962814,40.290536 147.27659,58.2576746 147.27659,78.8785203 C147.27659,81.7927124 147.050748,84.6537444 146.615448,87.4454148" id="Stroke-12" stroke="#E08900" stroke-width="1.5" stroke-linecap="round"></path>
                        <path d="M36.8385306,78.7008734 C36.8385306,48.4361927 61.430054,23.9017467 91.7653963,23.9017467" id="Stroke-14" stroke="#E08900" stroke-width="1.5" stroke-linecap="round"></path>
                        <path d="M110.463904,130.367599 C104.718072,132.396096 98.5334696,133.5 92.0898134,133.5 C69.4002654,133.5 49.9197449,119.811437 41.5131575,100.270742" id="Stroke-16" stroke="#C64100" stroke-width="1.5" stroke-linecap="round"></path>
                        <path d="M155.658529,108.532751 C155.658529,123.720484 143.317623,136.032751 128.094288,136.032751 C112.871228,136.032751 100.530322,123.720484 100.530322,108.532751 C100.530322,93.3450181 112.871228,81.0327511 128.094288,81.0327511 C143.317623,81.0327511 155.658529,93.3450181 155.658529,108.532751" id="Fill-22" fill="#FFAB12"></path>
                        <path d="M146.107934,33.8122271 C146.107934,36.7098946 143.753412,39.058952 140.848952,39.058952 C137.944545,39.058952 135.590023,36.7098946 135.590023,33.8122271 C135.590023,30.9145596 137.944545,28.5655022 140.848952,28.5655022 C143.753412,28.5655022 146.107934,30.9145596 146.107934,33.8122271" id="Fill-22-Copy" fill-opacity="0.4" fill="#FFBE00"></path>
                        <path d="M122.235822,8.16157205 C122.235822,9.81841565 120.889542,11.1615721 119.228814,11.1615721 C117.568117,11.1615721 116.221836,9.81841565 116.221836,8.16157205 C116.221836,6.50472846 117.568117,5.16157205 119.228814,5.16157205 C120.889542,5.16157205 122.235822,6.50472846 122.235822,8.16157205" id="Fill-22-Copy-2" fill="#FFB122"></path>
                        <path d="M30.1636187,45.4716157 C30.1636187,48.2330217 27.9198176,50.4716157 25.1519385,50.4716157 C22.3841093,50.4716157 20.1403082,48.2330217 20.1403082,45.4716157 C20.1403082,42.7102097 22.3841093,40.4716157 25.1519385,40.4716157 C27.9198176,40.4716157 30.1636187,42.7102097 30.1636187,45.4716157" id="Fill-22-Copy-3" fill="#FFB122"></path>
                        <path d="M42.0974858,118.342795 C42.0974858,121.562425 39.4813509,124.172489 36.2541731,124.172489 C33.0270536,124.172489 30.4109187,121.562425 30.4109187,118.342795 C30.4109187,115.123164 33.0270536,112.5131 36.2541731,112.5131 C39.4813509,112.5131 42.0974858,115.123164 42.0974858,118.342795" id="Fill-22-Copy-5" fill="#FFB122"></path>
                        <polyline id="Stroke-24" stroke="#FFFFFF" stroke-width="5" points="117.005418 107.983795 124.947503 116.170682 140.549775 100.527004"></polyline>
                        <polygon id="Stroke-26" stroke="#E49500" stroke-width="1.5" points="55.6593762 0 54.3683814 10.4934498 65.4706202 7.30213056"></polygon>
                        <polygon id="Stroke-26-Copy" stroke="#E49500" stroke-width="1.5" transform="translate(7.323828, 93.274388) rotate(-300.000000) translate(-7.323828, -93.274388) " points="3.08011485 88.01784 1.78077999 98.5309353 12.8668753 95.3228566"></polygon>
                        <polygon id="Stroke-28" stroke="#E49500" stroke-width="1.5" points="179.998978 84.8578645 171.818381 83.9475983 174.418279 92.6921397"></polygon>
                        <polygon id="Fill-32" fill="#E1F4E1" points="195.191516 60.4901276 183.504949 60.0458515 188.376892 67.6244541"></polygon>
                        <polygon id="Stroke-36" stroke="#FFFFFF" stroke-width="3" points="162.469128 60.628821 156.995858 54.2161572 155.457187 60.2567339"></polygon>
                    </g>
                    <g id="Group-8" transform="translate(6.191516, 17.250000)">
                        <path d="M158.325201,31.6645905 L160.903322,36.9404351 L166.145443,34.3468946 L163.567906,29.07105 L158.325201,31.6645905 Z M159.889716,32.2012865 L163.034522,30.6452797 L164.580927,33.8101986 L161.435537,35.3662054 L159.889716,32.2012865 Z" id="Fill-1" fill="#FFBE00"></path>
                        <g id="Group-7" transform="translate(0.000000, 0.494372)">
                            <path d="M3.79766053,36.2869946 C2.34823421,36.2869946 1.16871316,37.4738392 1.16871316,38.9322649 C1.16871316,40.3906905 2.34823421,41.5775351 3.79766053,41.5775351 C5.24708684,41.5775351 6.42660789,40.3906905 6.42660789,38.9322649 C6.42660789,37.4738392 5.24708684,36.2869946 3.79766053,36.2869946 M3.79766053,42.7532108 C1.70385,42.7532108 0.000292105263,41.0390757 0.000292105263,38.9322649 C0.000292105263,36.8254541 1.70385,35.1113189 3.79766053,35.1113189 C5.89147105,35.1113189 7.59502895,36.8254541 7.59502895,38.9322649 C7.59502895,41.0390757 5.89147105,42.7532108 3.79766053,42.7532108" id="Fill-2" fill="#FFBE00"></path>
                            <g id="Group-6" transform="translate(128.526316, 0.000000)">
                                <mask id="mask-11" fill="white">
                                    <use xlink:href="#path-10"></use>
                                </mask>
                                <g id="Clip-5"></g>
                            </g>
                        </g>
                    </g>
                </g>
            </g>
        </g>
    </g>
</svg>