<?xml version="1.0" encoding="UTF-8"?>
<svg width="20px" height="20px" viewBox="0 0 20 20" version="1.1" xmlns="http://www.w3.org/2000/svg" xmlns:xlink="http://www.w3.org/1999/xlink">
    <title>Fill 1</title>
    <g id="Page-1" stroke="none" stroke-width="1" fill="none" fill-rule="evenodd">
        <g id="TM2U-Admin---Inclinic-5" transform="translate(-1350.000000, -121.000000)" fill="#FFFFFF">
            <g id="Search-bar" transform="translate(296.000000, 101.000000)">
                <g id="Group-3" transform="translate(1054.000000, 20.000000)">
                    <path d="M1.90660947,8.91784802 C1.90660947,5.05156179 5.05187956,1.90660947 8.91784802,1.90660947 C12.7838165,1.90660947 15.9290866,5.05156179 15.9290866,8.91784802 C15.9290866,10.7609038 15.2131547,12.4390379 14.0466275,13.6916804 C14.0291502,13.7066155 14.0104019,13.7180551 13.9941957,13.7345791 C13.967821,13.7609538 13.9478016,13.7905063 13.92524,13.8187877 C12.6516249,15.1200486 10.8778426,15.9290866 8.91784802,15.9290866 C5.05187956,15.9290866 1.90660947,12.7841343 1.90660947,8.91784802 M19.721015,18.1131077 L15.9723031,14.3643957 C17.1391481,12.8565854 17.835696,10.9674532 17.835696,8.91784802 C17.835696,4.00038443 13.8353116,0 8.91784802,0 C4.0007022,0 0,4.00038443 0,8.91784802 C0,13.8353116 4.0007022,17.835696 8.91784802,17.835696 C11.1002803,17.835696 13.1006314,17.0466775 14.6522938,15.74065 L18.3727244,19.4610806 C18.5589366,19.6472928 18.8029826,19.7403989 19.0467108,19.7403989 C19.2907568,19.7403989 19.5348028,19.6472928 19.721015,19.4610806 C20.0931217,19.088974 20.0931217,18.4852143 19.721015,18.1131077" id="Fill-1"></path>
                </g>
            </g>
        </g>
    </g>
</svg>