<?xml version="1.0" encoding="UTF-8"?>
<svg width="20px" height="22px" viewBox="0 0 20 22" version="1.1" xmlns="http://www.w3.org/2000/svg" xmlns:xlink="http://www.w3.org/1999/xlink">
    <title>icon_logout</title>
    <g id="Page-1" stroke="none" stroke-width="1" fill="none" fill-rule="evenodd">
        <g id="03.Dashboard--Profile-dropdown" transform="translate(-1289.000000, -120.000000)" fill="#1C2A54">
            <g id="Group-8" transform="translate(1269.000000, 62.000000)">
                <g id="icon_logout" transform="translate(20.000000, 58.000000)">
                    <path d="M12.2675011,14.4271528 L12.2293556,12.5265453 C12.2192448,12.0260589 11.8109049,11.6257617 11.3104185,11.6257617 L5.7329133,11.6257617 L5.7329133,9.60037725 L11.1410619,9.60037725 C11.3880881,9.60037725 11.6245438,9.50087743 11.7973472,9.32439737 C11.9703803,9.1481471 12.0648247,8.90962328 12.0599991,8.66282695 L12.0239218,6.86631511 L17.4892886,10.7642724 L12.2675011,14.4271528 Z M19.6146324,10.0220451 L11.6020242,4.30712449 C11.3193803,4.10559713 10.9466581,4.08100941 10.6391968,4.2427828 C10.3319652,4.40501577 10.142387,4.72672421 10.1492808,5.07393953 L10.2032818,7.76204332 L4.81351655,7.76204332 C4.30613638,7.76204332 3.89434958,8.17360033 3.89434958,8.68121029 L3.89434958,12.5449286 C3.89434958,13.0525386 4.30613638,13.4640956 4.81351655,13.4640956 L10.409405,13.4640956 L10.4640955,16.1887363 C10.4709892,16.5283685 10.6642441,16.8365192 10.9673394,16.9900201 C11.0985505,17.0566597 11.2410213,17.0895199 11.3830326,17.0895199 C11.5687044,17.0895199 11.7534569,17.0332209 11.9108643,16.9229209 L19.6086578,11.522815 C19.8531562,11.3513903 19.999074,11.0721934 20,10.7739237 C20.0011421,10.475654 19.8575223,10.1950783 19.6146324,10.0220451 L19.6146324,10.0220451 Z" id="Fill-1"></path>
                    <path d="M14.7029948,19.3875292 L2.64030711,19.3875292 C2.19795801,19.3875292 1.83833393,19.0279052 1.83833393,18.5855561 L1.83833393,2.6405369 C1.83833393,2.1981878 2.19795801,1.83833393 2.64030711,1.83833393 L14.7029948,1.83833393 C15.2106047,1.83833393 15.6221618,1.42677692 15.6221618,0.919166966 C15.6221618,0.411557009 15.2106047,0 14.7029948,0 L2.64030711,0 C1.18434664,0 0,1.18457643 0,2.6405369 L0,18.5855561 C0,20.0415165 1.18434664,21.2258632 2.64030711,21.2258632 L14.7029948,21.2258632 C15.2106047,21.2258632 15.6221618,20.8143062 15.6221618,20.3066962 C15.6221618,19.7990862 15.2106047,19.3875292 14.7029948,19.3875292" id="Fill-3"></path>
                </g>
            </g>
        </g>
    </g>
</svg>