<?xml version="1.0" encoding="UTF-8"?>
<svg width="20px" height="28px" viewBox="0 0 20 28" version="1.1" xmlns="http://www.w3.org/2000/svg" xmlns:xlink="http://www.w3.org/1999/xlink">
    <title>icon_health summary copy</title>
    <defs>
        <polygon id="path-1" points="0 0 20 0 20 27.5828656 0 27.5828656"></polygon>
    </defs>
    <g id="Page-1" stroke="none" stroke-width="1" fill="none" fill-rule="evenodd">
        <g id="icon_health-summary-copy">
            <g id="Group-3">
                <mask id="mask-2" fill="white">
                    <use xlink:href="#path-1"></use>
                </mask>
                <g id="Clip-2"></g>
                <path d="M1.98698525,6.38073949 C1.98698525,5.87869455 2.39531071,5.47036908 2.89735565,5.47036908 L5.08999387,5.47036908 L5.08999387,6.16614508 C5.08999387,6.71488418 5.5347474,7.15963771 6.0834865,7.15963771 L13.9161823,7.15963771 C14.4649214,7.15963771 14.909675,6.71488418 14.909675,6.16614508 L14.909675,5.47036908 L17.1026443,5.47036908 C17.6043581,5.47036908 18.0130148,5.87869455 18.0130148,6.38073949 L18.0130148,11.4611296 L18.0130148,24.6858411 C18.0130148,25.187886 17.6043581,25.5958803 17.1026443,25.5958803 L2.89735565,25.5958803 C2.39531071,25.5958803 1.98698525,25.187886 1.98698525,24.6858411 L1.98698525,20.2681105 L1.98698525,6.38073949 Z M7.07697912,4.15233554 L8.41422019,4.15233554 C8.73048201,4.15233554 9.02786747,4.00165582 9.21497525,3.74699055 C9.40208302,3.49199411 9.45705628,3.16347921 9.36234332,2.86178862 C9.33684367,2.77999106 9.32425943,2.71508287 9.32425943,2.66242776 C9.32425943,2.28986803 9.62727468,1.98685278 9.99983442,1.98685278 C10.3723942,1.98685278 10.6754094,2.28986803 10.6754094,2.66242776 C10.6754094,2.71508287 10.6631563,2.77999106 10.6376567,2.86178862 C10.5429437,3.16347921 10.5975858,3.49199411 10.7850248,3.74699055 C10.9721325,4.00165582 11.269518,4.15233554 11.5854486,4.15233554 L12.9226897,4.15233554 L12.9226897,5.17265246 L7.07697912,5.17265246 L7.07697912,4.15233554 Z M0,20.2681105 L0,24.6858411 C0,26.2833772 1.29981952,27.5828656 2.89735565,27.5828656 L17.1026443,27.5828656 C18.7001805,27.5828656 20,26.2833772 20,24.6858411 L20,11.4611296 L20,6.38073949 C20,4.78320335 18.7001805,3.48338384 17.1026443,3.48338384 L14.909675,3.48338384 L14.909675,3.15884291 C14.909675,2.60977266 14.4649214,2.16535029 13.9161823,2.16535029 L12.6160317,2.16535029 C12.3825609,0.934081764 11.2983293,-0.000132465683 9.99983442,-0.000132465683 C8.70167072,-0.000132465683 7.61743911,0.934081764 7.38396834,2.16535029 L6.0834865,2.16535029 C5.5347474,2.16535029 5.08999387,2.60977266 5.08999387,3.15884291 L5.08999387,3.48338384 L2.89735565,3.48338384 C1.29981952,3.48338384 0,4.78320335 0,6.38073949 L0,20.2681105 Z" id="Fill-1" fill="#172B4E" mask="url(#mask-2)"></path>
            </g>
            <path d="M6.84350835,14.7332307 L8.5566208,14.7332307 C9.10535989,14.7332307 9.55011342,14.2884771 9.55011342,13.739738 L9.55011342,12.0266256 L11.1118838,12.0266256 L11.1118838,13.739738 C11.1118838,14.2884771 11.5566374,14.7332307 12.1053765,14.7332307 L13.8184889,14.7332307 L13.8184889,16.2950011 L12.1053765,16.2950011 C11.5566374,16.2950011 11.1118838,16.7397546 11.1118838,17.2884937 L11.1118838,19.0016061 L9.55011342,19.0016061 L9.55011342,17.2884937 C9.55011342,16.7397546 9.10535989,16.2950011 8.5566208,16.2950011 L6.84350835,16.2950011 L6.84350835,14.7332307 Z M5.85001573,18.2819863 L7.56312818,18.2819863 L7.56312818,19.9950988 C7.56312818,20.5438379 8.00821287,20.9885914 8.5566208,20.9885914 L12.1053765,20.9885914 C12.6541155,20.9885914 13.0988691,20.5438379 13.0988691,19.9950988 L13.0988691,18.2819863 L14.8119815,18.2819863 C15.3607206,18.2819863 15.8054741,17.8372328 15.8054741,17.2884937 L15.8054741,13.739738 C15.8054741,13.190999 15.3607206,12.7462454 14.8119815,12.7462454 L13.0988691,12.7462454 L13.0988691,11.033133 C13.0988691,10.4843939 12.6541155,10.0396404 12.1053765,10.0396404 L8.5566208,10.0396404 C8.00821287,10.0396404 7.56312818,10.4843939 7.56312818,11.033133 L7.56312818,12.7462454 L5.85001573,12.7462454 C5.30127664,12.7462454 4.85652311,13.190999 4.85652311,13.739738 L4.85652311,17.2884937 C4.85652311,17.8372328 5.30127664,18.2819863 5.85001573,18.2819863 L5.85001573,18.2819863 Z" id="Fill-4" fill="#172B4E"></path>
        </g>
    </g>
</svg>