<?xml version="1.0" encoding="UTF-8"?>
<svg width="26px" height="26px" viewBox="0 0 26 26" version="1.1" xmlns="http://www.w3.org/2000/svg" xmlns:xlink="http://www.w3.org/1999/xlink">
    <title>icon_notes copy 2</title>
    <defs>
        <polygon id="path-1" points="0 0 20.7395862 0 20.7395862 25.6781848 0 25.6781848"></polygon>
        <polygon id="path-3" points="0 0 10.659219 0 10.659219 11.9090297 0 11.9090297"></polygon>
    </defs>
    <g id="Page-1" stroke="none" stroke-width="1" fill="none" fill-rule="evenodd">
        <g id="icon_notes-copy-2">
            <g id="Group-3">
                <mask id="mask-2" fill="white">
                    <use xlink:href="#path-1"></use>
                </mask>
                <g id="Clip-2"></g>
                <path d="M17.2123593,6.49324329 L15.1552967,6.49324329 C14.6346779,6.49324329 14.2112458,6.06981121 14.2112458,5.54919238 L14.2112458,3.50827038 L17.2123593,6.49324329 Z M14.304655,23.617688 L3.00420421,23.617688 C2.48392879,23.617688 2.06049671,23.194256 2.06049671,22.6736371 L2.06049671,3.00447894 C2.06049671,2.4838601 2.48392879,2.06042803 3.00420421,2.06042803 L12.1507491,2.06042803 L12.1507491,5.54919238 C12.1507491,7.20583173 13.4986574,8.55374 15.1552967,8.55374 L18.6790895,8.55374 L18.6790895,14.1960668 C18.6790895,14.7651073 19.1406408,15.2263152 19.7093379,15.2263152 C20.2783784,15.2263152 20.7395862,14.7651073 20.7395862,14.1960668 L20.7395862,8.27282561 C20.7395862,7.52417848 20.4353196,6.79235873 19.9047417,6.26487157 L14.4344663,0.823786585 C13.8997674,0.29252185 13.1906131,-6.86832237e-05 12.4375016,-6.86832237e-05 L3.00420421,-6.86832237e-05 C1.34790827,-6.86832237e-05 0,1.34783958 0,3.00447894 L0,22.6736371 C0,24.3302765 1.34790827,25.6781848 3.00420421,25.6781848 L14.304655,25.6781848 C14.8733521,25.6781848 15.3349034,25.2169769 15.3349034,24.6479364 C15.3349034,24.0788959 14.8733521,23.617688 14.304655,23.617688 L14.304655,23.617688 Z" id="Fill-1" fill="#516983" mask="url(#mask-2)"></path>
            </g>
            <path d="M14.7980409,16.8675008 C14.7980409,16.2984603 14.3368331,15.8372525 13.7677926,15.8372525 L5.59826654,15.8372525 C5.02922603,15.8372525 4.56801819,16.2984603 4.56801819,16.8675008 C4.56801819,17.4365413 5.02922603,17.8977492 5.59826654,17.8977492 L13.7677926,17.8977492 C14.3368331,17.8977492 14.7980409,17.4365413 14.7980409,16.8675008" id="Fill-4" fill="#516983"></path>
            <path d="M13.7677926,12.7465074 L5.59826654,12.7465074 C5.02922603,12.7465074 4.56801819,13.2077152 4.56801819,13.7767557 C4.56801819,14.3457963 5.02922603,14.8070041 5.59826654,14.8070041 L13.7677926,14.8070041 C14.3368331,14.8070041 14.7980409,14.3457963 14.7980409,13.7767557 C14.7980409,13.2077152 14.3368331,12.7465074 13.7677926,12.7465074" id="Fill-6" fill="#516983"></path>
            <path d="M13.7677926,9.65576232 L5.59826654,9.65576232 C5.02922603,9.65576232 4.56801819,10.1169702 4.56801819,10.6860107 C4.56801819,11.2550512 5.02922603,11.716259 5.59826654,11.716259 L13.7677926,11.716259 C14.3368331,11.716259 14.7980409,11.2550512 14.7980409,10.6860107 C14.7980409,10.1169702 14.3368331,9.65576232 13.7677926,9.65576232" id="Fill-8" fill="#516983"></path>
            <path d="M5.59826654,18.9279975 C5.02922603,18.9279975 4.56801819,19.3892054 4.56801819,19.9582459 C4.56801819,20.5272864 5.02922603,20.9884942 5.59826654,20.9884942 L10.3336314,20.9884942 C10.9026719,20.9884942 11.3638798,20.5272864 11.3638798,19.9582459 C11.3638798,19.3892054 10.9026719,18.9279975 10.3336314,18.9279975 L5.59826654,18.9279975 Z" id="Fill-10" fill="#516983"></path>
            <g id="Group-14" transform="translate(15.340781, 13.941275)">
                <mask id="mask-4" fill="white">
                    <use xlink:href="#path-3"></use>
                </mask>
                <g id="Clip-13"></g>
                <path d="M3.55345872,9.50209481 L2.08054699,9.80292733 L2.06131568,8.3001384 L7.0236786,2.14268739 L8.51547822,3.34464381 L3.55345872,9.50209481 Z M10.6484357,3.11558526 C10.5952062,2.62278313 10.3534413,2.17977633 9.96744157,1.86829791 L8.15798204,0.410153074 C7.36056981,-0.232035068 6.19020768,-0.106344768 5.54767612,0.690724043 L0.410857816,7.06418379 C0.140589331,7.39970134 -0.00501910344,7.82141633 0.000132138338,8.25240356 L0.0231410183,10.0759431 C0.0303527568,10.6309036 0.282420188,11.1491185 0.714437665,11.4976859 C1.04823813,11.7665807 1.45759015,11.9090984 1.87758806,11.9090984 C2.00156128,11.9090984 2.12690816,11.896392 2.2512248,11.8709792 L4.03595836,11.5066147 C4.45836019,11.4207607 4.8398955,11.1886114 5.11153765,10.8527504 L10.2476691,4.47894725 C10.5588041,4.09294753 10.7013218,3.60907422 10.6484357,3.11558526 L10.6484357,3.11558526 Z" id="Fill-12" fill="#516983" mask="url(#mask-4)"></path>
            </g>
        </g>
    </g>
</svg>