<?xml version="1.0" encoding="UTF-8"?>
<svg width="26px" height="21px" viewBox="0 0 26 21" version="1.1" xmlns="http://www.w3.org/2000/svg" xmlns:xlink="http://www.w3.org/1999/xlink">
    <title>icon_dashboard copy 2</title>
    <g id="Page-1" stroke="none" stroke-width="1" fill="none" fill-rule="evenodd">
        <g id="icon_dashboard-copy-2" fill="#516983">
            <path d="M13,15.2465171 C11.7609643,15.2465171 10.7534182,14.2386472 10.7534182,12.9999352 C10.7534182,11.7608996 11.7609643,10.7530297 13,10.7530297 C14.2390357,10.7530297 15.2465818,11.7608996 15.2465818,12.9999352 C15.2465818,14.2386472 14.2390357,15.2465171 13,15.2465171 M18.0639554,6.04326949 L15.1925136,9.43726247 C14.553732,9.04259707 13.8042238,8.81045999 13,8.81045999 C10.6899609,8.81045999 8.8108485,10.6898961 8.8108485,12.9999352 C8.8108485,15.3096506 10.6899609,17.1890867 13,17.1890867 C15.3100391,17.1890867 17.1891515,15.3096506 17.1891515,12.9999352 C17.1891515,12.1999203 16.9596045,11.4539736 16.5688242,10.8171345 L19.5467836,7.29784574 C19.8935322,6.88893482 19.8423779,6.27605409 19.4328195,5.92962917 C19.0235848,5.58288048 18.4103803,5.63435858 18.0639554,6.04326949" id="Fill-1"></path>
            <path d="M13,0 C5.83159415,0 0,5.83159415 0,12.9996762 C0,15.2909372 0.607700545,17.5469081 1.75705427,19.524444 C2.02674769,19.9877469 2.62085025,20.1454188 3.08480064,19.8760491 C3.54875103,19.6060319 3.70609917,19.0116056 3.43640575,18.547979 C2.45896944,16.8666849 1.94256967,14.9487211 1.94256967,12.9996762 C1.94256967,6.90259756 6.90292133,1.94256967 13,1.94256967 C19.0970787,1.94256967 24.0574303,6.90259756 24.0574303,12.9996762 C24.0574303,14.9487211 23.5410306,16.8666849 22.5635943,18.547979 C22.2939008,19.0116056 22.451249,19.6060319 22.9151994,19.8760491 C23.0686624,19.9650836 23.2366946,20.0075748 23.4021368,20.0075748 C23.7369063,20.0075748 24.0626105,19.8342839 24.2429457,19.524444 C25.3922995,17.5469081 26,15.2909372 26,12.9996762 C26,5.83159415 20.1684058,0 13,0" id="Fill-3"></path>
        </g>
    </g>
</svg>