<?xml version="1.0" encoding="UTF-8"?>
<svg width="25px" height="25px" viewBox="0 0 25 25" version="1.1" xmlns="http://www.w3.org/2000/svg" xmlns:xlink="http://www.w3.org/1999/xlink">
    <title>icon_imaging copy 2</title>
    <g id="Page-1" stroke="none" stroke-width="1" fill="none" fill-rule="evenodd">
        <g id="icon_imaging-copy-2" fill="#516983">
            <path d="M20.5296963,9.0519913 C21.0331417,9.0519913 21.4411847,8.64394832 21.4411847,8.1405029 L21.4411847,4.69811504 C21.4411847,3.91848863 20.8070926,3.28439653 20.0274662,3.28439653 L5.11369299,3.28439653 C4.33406658,3.28439653 3.69967065,3.91848863 3.69967065,4.69811504 L3.69967065,8.00165283 C3.69967065,8.50509826 4.10801745,8.91314123 4.61115905,8.91314123 C5.11460447,8.91314123 5.52264745,8.50509826 5.52264745,8.00165283 L5.52264745,5.10737333 L19.6182079,5.10737333 L19.6182079,8.1405029 C19.6182079,8.64394832 20.0262509,9.0519913 20.5296963,9.0519913" id="Fill-1"></path>
            <path d="M5.52270821,19.2025692 L19.6182687,19.2025692 L19.6182687,11.7903455 L5.52270821,11.7903455 L5.52270821,19.2025692 Z M3.69973141,11.7906493 L3.69973141,19.6118275 C3.69973141,20.3914539 4.33412734,21.025546 5.11375375,21.025546 L20.0275269,21.025546 C20.8068495,21.025546 21.4412455,20.3914539 21.4412455,19.6118275 L21.4412455,11.7906493 L24.0885116,11.7906493 C24.5916532,11.7906493 25,11.3826064 25,10.8791609 C25,10.3757155 24.5916532,9.96767254 24.0885116,9.96767254 L0.9114884,9.96767254 C0.408042974,9.96767254 0,10.3757155 0,10.8791609 C0,11.3826064 0.408042974,11.7906493 0.9114884,11.7906493 L3.69973141,11.7906493 Z" id="Fill-3"></path>
            <path d="M20.1513982,24.3096387 C22.5048613,24.3096387 24.4192907,22.3949054 24.4192907,20.0417462 L24.4192907,15.7835762 C24.4192907,15.2798269 24.0112478,14.8720878 23.5078023,14.8720878 C23.0043569,14.8720878 22.5963139,15.2798269 22.5963139,15.7835762 L22.5963139,20.0417462 C22.5963139,21.3901413 21.4994896,22.4866619 20.1513982,22.4866619 L16.2402015,22.4866619 C15.7367561,22.4866619 15.3287131,22.8947049 15.3287131,23.3981503 C15.3287131,23.9015957 15.7367561,24.3096387 16.2402015,24.3096387 L20.1513982,24.3096387 Z" id="Fill-5"></path>
            <path d="M1.6332353,9.35551694 C2.13668072,9.35551694 2.5447237,8.94747396 2.5447237,8.44402854 L2.5447237,4.26789252 C2.5447237,2.91949734 3.64154807,1.8229768 4.98963942,1.8229768 L8.90083614,1.8229768 C9.40428156,1.8229768 9.81232454,1.41493383 9.81232454,0.9114884 C9.81232454,0.408042974 9.40428156,0 8.90083614,0 L4.98963942,0 C2.63617637,0 0.721746898,1.9147333 0.721746898,4.26789252 L0.721746898,8.44402854 C0.721746898,8.94747396 1.12978987,9.35551694 1.6332353,9.35551694" id="Fill-6"></path>
            <path d="M16.2402015,3.03829466e-05 C15.7367561,3.03829466e-05 15.3287131,0.408073357 15.3287131,0.911518783 C15.3287131,1.41496421 15.7367561,1.82300718 16.2402015,1.82300718 L20.1513982,1.82300718 C21.4994896,1.82300718 22.5963139,2.91952773 22.5963139,4.2679229 L22.5963139,8.44405892 C22.5963139,8.94750434 23.0043569,9.35554732 23.5078023,9.35554732 C24.0112478,9.35554732 24.4192907,8.94750434 24.4192907,8.44405892 L24.4192907,4.2679229 C24.4192907,1.91476368 22.5048613,3.03829466e-05 20.1513982,3.03829466e-05 L16.2402015,3.03829466e-05 Z" id="Fill-7"></path>
            <path d="M8.90080576,24.3096387 C9.40425118,24.3096387 9.81229416,23.9015957 9.81229416,23.3981503 C9.81229416,22.8947049 9.40425118,22.4866619 8.90080576,22.4866619 L4.98960903,22.4866619 C3.64151769,22.4866619 2.54469331,21.3901413 2.54469331,20.0417462 L2.54469331,15.7835762 C2.54469331,15.2798269 2.13665034,14.8720878 1.63320491,14.8720878 C1.12975949,14.8720878 0.721716515,15.2798269 0.721716515,15.7835762 L0.721716515,20.0417462 C0.721716515,22.3949054 2.63614598,24.3096387 4.98960903,24.3096387 L8.90080576,24.3096387 Z" id="Fill-8"></path>
        </g>
    </g>
</svg>