<?xml version="1.0" encoding="UTF-8"?>
<svg width="22px" height="31px" viewBox="0 0 22 31" version="1.1" xmlns="http://www.w3.org/2000/svg" xmlns:xlink="http://www.w3.org/1999/xlink">
    <title>icon_tasks copy</title>
    <defs>
        <polygon id="path-1" points="0 0 22 0 22 30.3413167 0 30.3413167"></polygon>
    </defs>
    <g id="Page-1" stroke="none" stroke-width="1" fill="none" fill-rule="evenodd">
        <g id="icon_tasks-copy">
            <g id="Group-3">
                <mask id="mask-2" fill="white">
                    <use xlink:href="#path-1"></use>
                </mask>
                <g id="Clip-2"></g>
                <path d="M18.8128877,6.01740942 C19.3651408,6.01740942 19.8143018,6.46657041 19.8143018,7.0188235 L19.8143018,12.6069254 L19.8143018,27.1542043 C19.8143018,27.7064574 19.3651408,28.1556184 18.8128877,28.1556184 L3.18696662,28.1556184 C2.63471352,28.1556184 2.18555253,27.7064574 2.18555253,27.1542043 L2.18555253,22.2950328 L2.18555253,7.0188235 C2.18555253,6.46657041 2.63471352,6.01740942 3.18696662,6.01740942 L5.59924891,6.01740942 L5.59924891,6.05383772 C5.59924891,6.65745472 6.08848104,7.14668685 6.69209804,7.14668685 L15.3077562,7.14668685 C15.9113732,7.14668685 16.4006054,6.65745472 16.4006054,6.05383772 L16.4006054,6.01740942 L18.8128877,6.01740942 Z M7.78494716,4.56756291 L9.25592208,4.56756291 C9.6034481,4.56756291 9.93020999,4.40181413 10.1363942,4.12204475 C10.3422141,3.84154681 10.4026851,3.48017804 10.2988644,3.14868047 C10.2704504,3.05797399 10.2569719,2.98621023 10.2569719,2.92865351 C10.2569719,2.51883509 10.5902909,2.18551611 11.0001093,2.18551611 C11.4099277,2.18551611 11.7432467,2.51883509 11.7432467,2.92865351 C11.7432467,2.98621023 11.7294039,3.05797399 11.7013541,3.14868047 C11.5975335,3.48017804 11.6576402,3.84154681 11.8638244,4.12204475 C12.0696443,4.40181413 12.3964062,4.56756291 12.7442965,4.56756291 L14.2149071,4.56756291 L14.2149071,4.9609886 L7.78494716,4.9609886 L7.78494716,4.56756291 Z M15.3077562,2.38186467 L13.877581,2.38186467 C13.6207615,1.02746032 12.4280988,-0.000182141521 11.0001093,-0.000182141521 C9.57175548,-0.000182141521 8.3790928,1.02746032 8.12227326,2.38186467 L6.69209804,2.38186467 C6.08848104,2.38186467 5.59924891,2.87073251 5.59924891,3.47471379 L5.59924891,3.83171117 L3.18696662,3.83171117 C1.42966522,3.83171117 -0.000145713217,5.26152211 -0.000145713217,7.0188235 L-0.000145713217,22.2950328 L-0.000145713217,27.1542043 C-0.000145713217,28.91187 1.42966522,30.3413167 3.18696662,30.3413167 L18.8128877,30.3413167 C20.5701891,30.3413167 22,28.91187 22,27.1542043 L22,12.6069254 L22,7.0188235 C22,5.26152211 20.5701891,3.83171117 18.8128877,3.83171117 L16.4006054,3.83171117 L16.4006054,3.47471379 C16.4006054,2.87073251 15.9113732,2.38186467 15.3077562,2.38186467 L15.3077562,2.38186467 Z" id="Fill-1" fill="#172B4E" mask="url(#mask-2)"></path>
            </g>
            <path d="M9.42669797,10.9178177 C9.42669797,11.5214347 9.9159301,12.0106669 10.5195471,12.0106669 L17.0372993,12.0106669 C17.6409163,12.0106669 18.1301484,11.5214347 18.1301484,10.9178177 C18.1301484,10.3142007 17.6409163,9.82496862 17.0372993,9.82496862 L10.5195471,9.82496862 C9.9159301,9.82496862 9.42669797,10.3142007 9.42669797,10.9178177" id="Fill-4" fill="#172B4E"></path>
            <path d="M17.0373357,15.2892142 L10.5195835,15.2892142 C9.91596653,15.2892142 9.4267344,15.7784464 9.4267344,16.3820634 C9.4267344,16.9856804 9.91596653,17.4749125 10.5195835,17.4749125 L17.0373357,17.4749125 C17.6409527,17.4749125 18.1301848,16.9856804 18.1301848,16.3820634 C18.1301848,15.7784464 17.6409527,15.2892142 17.0373357,15.2892142" id="Fill-6" fill="#172B4E"></path>
            <path d="M17.0373357,20.7534599 L10.5195835,20.7534599 C9.91596653,20.7534599 9.4267344,21.242692 9.4267344,21.846309 C9.4267344,22.449926 9.91596653,22.9391581 10.5195835,22.9391581 L17.0373357,22.9391581 C17.6409527,22.9391581 18.1301848,22.449926 18.1301848,21.846309 C18.1301848,21.242692 17.6409527,20.7534599 17.0373357,20.7534599" id="Fill-8" fill="#172B4E"></path>
            <path d="M6.72022069,9.81750082 L5.75924203,10.9143571 L5.34978789,10.5985237 C4.87221282,10.2298692 4.18553929,10.3180257 3.81688485,10.7966936 C3.4485947,11.2742687 3.53711547,11.960578 4.01505482,12.3295967 L5.23722443,13.2719969 C5.43575869,13.4246315 5.67035696,13.4993095 5.90422668,13.4993095 C6.2087673,13.4993095 6.51148651,13.372539 6.72677778,13.1270122 L8.36423005,11.2582402 C8.76166285,10.8043436 8.71612747,10.1136629 8.2622308,9.71623013 C7.80869842,9.31843305 7.11838205,9.36323987 6.72022069,9.81750082" id="Fill-10" fill="#172B4E"></path>
            <path d="M6.72022069,14.9174634 L5.75924203,16.0143196 L5.34978789,15.6984862 C4.87221282,15.3298318 4.18553929,15.4179883 3.81688485,15.8966562 C3.4485947,16.3742313 3.53711547,17.0605405 4.01505482,17.4295593 L5.23722443,18.3719595 C5.43575869,18.5245941 5.67035696,18.5992721 5.90422668,18.5992721 C6.2087673,18.5992721 6.51148651,18.4725016 6.72677778,18.2269748 L8.36423005,16.3582028 C8.76166285,15.9043062 8.71612747,15.2136255 8.2622308,14.8161927 C7.80869842,14.4183956 7.11838205,14.4632024 6.72022069,14.9174634" id="Fill-12" fill="#172B4E"></path>
            <path d="M6.72022069,20.381709 L5.75924203,21.4785653 L5.34978789,21.1627319 C4.87221282,20.7937131 4.18553929,20.8818696 3.81688485,21.3609018 C3.4485947,21.8384769 3.53711547,22.5247861 4.01505482,22.8938049 L5.23722443,23.8362051 C5.43575869,23.9888397 5.67035696,24.0635177 5.90422668,24.0635177 C6.2087673,24.0635177 6.51148651,23.9367472 6.72677778,23.6912204 L8.36423005,21.8224484 C8.76166285,21.3685518 8.71612747,20.6778711 8.2622308,20.2804383 C7.80869842,19.8826413 7.11838205,19.9278123 6.72022069,20.381709" id="Fill-14" fill="#172B4E"></path>
        </g>
    </g>
</svg>