<?xml version="1.0" encoding="UTF-8"?>
<svg width="22px" height="25px" viewBox="0 0 22 25" version="1.1" xmlns="http://www.w3.org/2000/svg" xmlns:xlink="http://www.w3.org/1999/xlink">
    <title>icon_dependent copy 2</title>
    <defs>
        <polygon id="path-1" points="0 0 22 0 22 13.9780201 0 13.9780201"></polygon>
    </defs>
    <g id="Page-1" stroke="none" stroke-width="1" fill="none" fill-rule="evenodd">
        <g id="icon_dependent-copy-2" transform="translate(0.000000, -0.000000)">
            <g id="Group-3" transform="translate(0.000000, 10.599956)">
                <mask id="mask-2" fill="white">
                    <use xlink:href="#path-1"></use>
                </mask>
                <g id="Clip-2"></g>
                <path d="M20.208916,11.5441138 C20.208916,11.8984676 19.920537,12.1868465 19.5661832,12.1868465 L15.963536,12.1868465 C15.864723,10.2920834 14.2923711,8.7812285 12.3731286,8.7812285 L9.62666243,8.7812285 C7.70771847,8.7812285 6.13506806,10.2920834 6.03625498,12.1868465 L2.43390637,12.1868465 C2.07955253,12.1868465 1.79117359,11.8984676 1.79117359,11.5441138 L1.79117359,7.46531297 C1.79117359,4.33643125 4.33643125,1.79117359 7.46531297,1.79117359 L14.5347766,1.79117359 C17.6636583,1.79117359 20.208916,4.33643125 20.208916,7.46531297 L20.208916,11.5441138 Z M14.5347766,0 L7.46531297,0 C3.34889755,0 0,3.34889755 0,7.46531297 L0,11.5441138 C0,12.8862998 1.0917203,13.9780201 2.43390637,13.9780201 L6.22104439,13.9780201 C7.10409297,13.9780201 7.8226521,13.2597595 7.8226521,12.3764124 C7.8226521,11.381714 8.63196404,10.5724021 9.62666243,10.5724021 L12.3731286,10.5724021 C13.3681255,10.5724021 14.1774375,11.381714 14.1774375,12.3764124 C14.1774375,13.2597595 14.8959966,13.9780201 15.7790452,13.9780201 L19.5661832,13.9780201 C20.9083693,13.9780201 22.0000896,12.8862998 22.0000896,11.5441138 L22.0000896,7.46531297 C22.0000896,3.34889755 18.651192,0 14.5347766,0 L14.5347766,0 Z" id="Fill-1" fill="#516983" mask="url(#mask-2)"></path>
            </g>
            <path d="M11.0000149,1.79117359 C12.7046151,1.79117359 14.091282,3.17784047 14.091282,4.88244066 C14.091282,6.58704086 12.7046151,7.97370774 11.0000149,7.97370774 C9.29541473,7.97370774 7.90874785,6.58704086 7.90874785,4.88244066 C7.90874785,3.17784047 9.29541473,1.79117359 11.0000149,1.79117359 M11.0000149,9.76488133 C13.6924474,9.76488133 15.8824556,7.57487309 15.8824556,4.88244066 C15.8824556,2.19030677 13.6924474,0 11.0000149,0 C8.3075825,0 6.11757426,2.19030677 6.11757426,4.88244066 C6.11757426,7.57487309 8.3075825,9.76488133 11.0000149,9.76488133" id="Fill-4" fill="#516983"></path>
            <path d="M11.0000149,17.2904971 C10.4623643,17.2904971 10.0250194,16.8531523 10.0250194,16.3155017 C10.0250194,15.7778511 10.4623643,15.3405062 11.0000149,15.3405062 C11.5376655,15.3405062 11.9750104,15.7778511 11.9750104,16.3155017 C11.9750104,16.8531523 11.5376655,17.2904971 11.0000149,17.2904971 M11.0000149,13.5493326 C9.47483062,13.5493326 8.23384585,14.7903173 8.23384585,16.3155017 C8.23384585,17.840686 9.47483062,19.0816707 11.0000149,19.0816707 C12.5251992,19.0816707 13.766184,17.840686 13.766184,16.3155017 C13.766184,14.7903173 12.5251992,13.5493326 11.0000149,13.5493326" id="Fill-6" fill="#516983"></path>
        </g>
    </g>
</svg>