<?xml version="1.0" encoding="UTF-8"?>
<svg width="22px" height="28px" viewBox="0 0 22 28" version="1.1" xmlns="http://www.w3.org/2000/svg" xmlns:xlink="http://www.w3.org/1999/xlink">
    <title>icon_billing copy</title>
    <g id="Page-1" stroke="none" stroke-width="1" fill="none" fill-rule="evenodd">
        <g id="icon_billing-copy" fill="#172B4E">
            <path d="M9.83336341,8.96247051 L9.83336341,11.8239185 C9.05780354,11.8067972 8.43123567,11.1729437 8.43123567,10.3933767 C8.43123567,9.61344538 9.05780354,8.97995612 9.83336341,8.96247051 L9.83336341,8.96247051 Z M12.1352718,14.012899 C12.9257673,14.012899 13.5690922,14.6562239 13.5690922,15.4470837 C13.5690922,16.2375792 12.9257673,16.8805398 12.1352718,16.8805398 L12.0190653,16.8805398 L12.0190653,14.012899 L12.1352718,14.012899 Z M8.43123567,15.4470837 C8.43123567,14.8434657 7.94200273,14.3542327 7.33838473,14.3542327 C6.73476673,14.3542327 6.2455338,14.8434657 6.2455338,15.4470837 C6.2455338,17.4320652 7.85238896,19.0476632 9.83336341,19.0644203 L9.83336341,19.936151 C9.83336341,20.539769 10.3225963,21.0290019 10.9262143,21.0290019 C11.5298323,21.0290019 12.0190653,20.539769 12.0190653,19.936151 L12.0190653,19.0662417 L12.1352718,19.0662417 C14.1308176,19.0662417 15.7547941,17.4426295 15.7547941,15.4470837 C15.7547941,13.4508093 14.1308176,11.8271971 12.1352718,11.8271971 L12.0190653,11.8271971 L12.0190653,8.95919195 L12.1352718,8.95919195 C12.9257673,8.95919195 13.5690922,9.60251687 13.5690922,10.3933767 C13.5690922,10.9969947 14.0583251,11.4862276 14.6619431,11.4862276 C15.2655611,11.4862276 15.7547941,10.9969947 15.7547941,10.3933767 C15.7547941,8.39746657 14.1308176,6.77349009 12.1352718,6.77349009 L12.0190653,6.77349009 L12.0190653,5.94328766 C12.0190653,5.33966966 11.5298323,4.85043673 10.9262143,4.85043673 C10.3225963,4.85043673 9.83336341,5.33966966 9.83336341,5.94328766 L9.83336341,6.7753115 C7.85238896,6.79243284 6.2455338,8.4080308 6.2455338,10.3933767 C6.2455338,12.3787225 7.85238896,13.9943205 9.83336341,14.0110775 L9.83336341,16.8776255 C9.05780354,16.8601399 8.43123567,16.2262864 8.43123567,15.4470837 L8.43123567,15.4470837 Z" id="Fill-1"></path>
            <g id="Group-5">
                <path d="M3.18711761,2.18570187 L18.8130645,2.18570187 C19.3653185,2.18570187 19.8144803,2.6348636 19.8144803,3.18711761 L19.8144803,24.5046322 L19.2538477,24.9989651 L18.3227388,24.1785983 C17.9100054,23.8150433 17.2903589,23.814679 16.8776255,24.1789626 L15.948338,24.9982365 L15.0201432,24.1793269 C14.6070456,23.8143147 13.9870348,23.8143147 13.5739372,24.1793269 L12.6461067,24.9982365 L11.717912,24.1793269 C11.3051786,23.8143147 10.6851679,23.8143147 10.2717059,24.1793269 L9.34387548,24.9982365 L8.41604504,24.1793269 C8.00294739,23.8143147 7.38257234,23.8143147 6.96947469,24.1793269 L6.04237281,24.9978723 L5.11636379,24.1793269 C4.70290185,23.814679 4.0825268,23.8139504 3.66942915,24.1793269 L2.74232728,24.997508 L2.18570187,24.505725 L2.18570187,3.18711761 C2.18570187,2.6348636 2.6348636,2.18570187 3.18711761,2.18570187 M0.369383616,25.8175105 L2.01849567,27.274645 C2.43159333,27.639293 3.05196837,27.6400215 3.46543031,27.2750093 L4.39253219,26.4560997 L5.31890549,27.274645 C5.52545432,27.4571511 5.78373142,27.5487685 6.04237281,27.5487685 C6.30064992,27.5487685 6.55892702,27.4575154 6.76547585,27.2750093 L7.692942,26.4560997 L8.62113673,27.2750093 C9.0338701,27.6400215 9.65388086,27.6400215 10.0673428,27.2750093 L10.9951732,26.4560997 L11.9230037,27.2750093 C12.3361013,27.6400215 12.9561121,27.6400215 13.369574,27.2750093 L14.2970402,26.4560997 L15.2245064,27.2750093 C15.637604,27.6396572 16.2572505,27.6396572 16.6707124,27.2753736 L17.6003643,26.4553711 L18.5314733,27.2757379 C18.9442066,27.639293 19.5634888,27.639293 19.9762222,27.2757379 L21.6297057,25.8186033 C21.9105684,25.5708904 22.033332,25.2113425 21.9914393,24.8660016 C21.993625,24.8372232 22.0001821,24.8095376 22.0001821,24.7800306 L22.0001821,3.18711761 C22.0001821,1.4298133 20.5703688,0 18.8130645,0 L3.18711761,0 C1.4298133,0 0,1.4298133 0,3.18711761 L0,24.7800306 C0,24.8099019 0.0065571056,24.8379517 0.00874280747,24.8674587 C-0.0324212444,25.2117068 0.0896137765,25.5705261 0.369383616,25.8175105" id="Fill-3"></path>
            </g>
        </g>
    </g>
</svg>