<?xml version="1.0" encoding="UTF-8"?>
<svg width="22px" height="25px" viewBox="0 0 22 25" version="1.1" xmlns="http://www.w3.org/2000/svg" xmlns:xlink="http://www.w3.org/1999/xlink">
    <title>icon_lab orders copy 2</title>
    <defs>
        <polygon id="path-1" points="0 0 22 0 22 24.0706933 0 24.0706933"></polygon>
    </defs>
    <g id="Page-1" stroke="none" stroke-width="1" fill="none" fill-rule="evenodd">
        <g id="icon_lab-orders-copy-2" transform="translate(0.000000, -0.000000)">
            <g id="Group-3">
                <mask id="mask-2" fill="white">
                    <use xlink:href="#path-1"></use>
                </mask>
                <g id="Clip-2"></g>
                <path d="M19.9956417,21.8136367 C19.9352553,21.9188364 19.7547314,22.1638784 19.3905055,22.1638784 L2.60941583,22.1638784 C2.24487209,22.1638784 2.06466607,21.9191542 2.00427957,21.8139546 C1.94357525,21.7087549 1.82248443,21.4300236 2.00555087,21.1150603 C2.01127169,21.1052078 2.01699252,21.0947196 2.02239552,21.0845492 L5.26832864,14.9944121 L10.9166909,14.9944121 C11.3308151,15.3376617 11.8622163,15.5439292 12.4409732,15.5439292 C13.0200479,15.5439292 13.5517669,15.3376617 13.9658911,14.9944121 L16.7312749,14.9944121 L19.977208,21.0845492 C19.9829288,21.0947196 19.9886496,21.1052078 19.9943705,21.1150603 C20.1771191,21.4300236 20.0560282,21.7084371 19.9956417,21.8136367 L19.9956417,21.8136367 Z M12.4409732,13.6369872 C12.1724122,13.6369872 11.9534317,13.4183246 11.9534317,13.1491279 C11.9534317,12.8805669 12.1724122,12.6615864 12.4409732,12.6615864 C12.7101698,12.6615864 12.9291503,12.8805669 12.9291503,13.1491279 C12.9291503,13.4183246 12.7101698,13.6369872 12.4409732,13.6369872 L12.4409732,13.6369872 Z M8.20915103,9.47731107 C8.2825683,9.33905778 8.32134279,9.18523112 8.32134279,9.02854406 L8.32134279,1.96809128 L13.6785785,1.96809128 L13.6785785,9.02854406 C13.6785785,9.18523112 13.7170352,9.33905778 13.7907703,9.47731107 L15.7148748,13.0874701 L14.8329141,13.0874701 C14.7995426,11.7955169 13.740872,10.7546444 12.4409732,10.7546444 C11.14171,10.7546444 10.0830394,11.7955169 10.0496679,13.0874701 L6.28472873,13.0874701 L8.20915103,9.47731107 Z M21.6527744,20.1736666 L15.5855205,8.7901763 L15.5855205,1.90706914 C16.0123577,1.90802261 16.4026452,1.90992955 16.7373135,1.91310778 L16.7462126,1.91310778 C17.2687147,1.91310778 17.6949162,1.49199143 17.6993657,0.968218021 C17.7041331,0.441584204 17.2811098,0.0106153105 16.7547938,0.00616577915 C13.5120389,-0.0230739983 5.32649037,0.0605136263 5.24385622,0.0611492736 C4.71754022,0.066552276 4.29515257,0.497838993 4.30023775,1.02447281 C4.30564075,1.54729274 4.73152446,1.96809128 5.25339093,1.96809128 L5.26356128,1.96809128 C5.28231288,1.96809128 5.71804913,1.96332392 6.41440078,1.95696745 L6.41440078,8.7901763 L0.346829145,20.1739844 C-0.11719341,20.9860239 -0.115604291,21.9531613 0.3515965,22.7652008 C0.822293352,23.5826433 1.66611519,24.0708204 2.60941583,24.0708204 L19.3905055,24.0708204 C20.3338061,24.0708204 21.1779458,23.5823254 21.6483248,22.764883 C22.1158434,21.9528435 22.1171147,20.9860239 21.6527744,20.1736666 L21.6527744,20.1736666 Z" id="Fill-1" fill="#516983" mask="url(#mask-2)"></path>
            </g>
            <path d="M8.27093596,19.2524229 C7.84155618,19.2524229 7.49258579,18.9031347 7.49258579,18.4743906 C7.49258579,18.0450108 7.84155618,17.6960404 8.27093596,17.6960404 C8.69999791,17.6960404 9.04896829,18.0450108 9.04896829,18.4743906 C9.04896829,18.9031347 8.69999791,19.2524229 8.27093596,19.2524229 M8.27093596,15.7890984 C6.79019549,15.7890984 5.58564379,16.9936501 5.58564379,18.4743906 C5.58564379,19.9548132 6.79019549,21.1593649 8.27093596,21.1593649 C9.7513586,21.1593649 10.9559103,19.9548132 10.9559103,18.4743906 C10.9559103,16.9936501 9.7513586,15.7890984 8.27093596,15.7890984" id="Fill-4" fill="#516983"></path>
        </g>
    </g>
</svg>