<?xml version="1.0" encoding="UTF-8"?>
<svg width="26px" height="28px" viewBox="0 0 26 28" version="1.1" xmlns="http://www.w3.org/2000/svg" xmlns:xlink="http://www.w3.org/1999/xlink">
    <title>icon_schedule_normal</title>
    <defs>
        <polygon id="path-1" points="0 0 26 0 26 27.1320277 0 27.1320277"></polygon>
    </defs>
    <g id="Page-1" stroke="none" stroke-width="1" fill="none" fill-rule="evenodd">
        <g id="icon_schedule_normal">
            <g id="Group-3">
                <mask id="mask-2" fill="white">
                    <use xlink:href="#path-1"></use>
                </mask>
                <g id="Clip-2"></g>
                <path d="M22.8137594,2.45059012 L20.4502091,2.45059012 L20.4502091,1.09255021 C20.4502091,0.488734127 19.9611108,0 19.3576589,0 C18.754207,0 18.2651087,0.488734127 18.2651087,1.09255021 L18.2651087,6.40889952 C18.2651087,7.01235142 18.754207,7.50144973 19.3576589,7.50144973 C19.9611108,7.50144973 20.4502091,7.01235142 20.4502091,6.40889952 L20.4502091,4.63569053 L22.8137594,4.63569053 C23.3658614,4.63569053 23.8148996,5.08472867 23.8148996,5.63683071 L23.8148996,23.9457871 C23.8148996,24.4978891 23.3658614,24.9469273 22.8137594,24.9469273 L3.18609492,24.9469273 C2.63399288,24.9469273 2.18495474,24.4978891 2.18495474,23.9457871 L2.18495474,5.63683071 C2.18495474,5.08472867 2.63399288,4.63569053 3.18609492,4.63569053 L5.31474691,4.63569053 L5.31474691,6.40889952 C5.31474691,7.01235142 5.80384522,7.50144973 6.40729711,7.50144973 C7.01074901,7.50144973 7.49985433,7.01235142 7.49985433,6.40889952 L7.49985433,4.63569053 L15.2631449,4.63569053 C15.8665968,4.63569053 16.3556951,4.14659222 16.3556951,3.54314033 C16.3556951,2.93968843 15.8665968,2.45059012 15.2631449,2.45059012 L7.49985433,2.45059012 L7.49985433,1.09255021 C7.49985433,0.488734127 7.01074901,0 6.40729711,0 C5.80384522,0 5.31474691,0.488734127 5.31474691,1.09255021 L5.31474691,2.45059012 L3.18609492,2.45059012 C1.42927418,2.45059012 -0.000145673361,3.88000997 -0.000145673361,5.63683071 L-0.000145673361,23.9457871 C-0.000145673361,25.702972 1.42927418,27.1320277 3.18609492,27.1320277 L22.8137594,27.1320277 C24.5705801,27.1320277 26,25.702972 26,23.9457871 L26,5.63683071 C26,3.88000997 24.5705801,2.45059012 22.8137594,2.45059012" id="Fill-1" fill="#516983" mask="url(#mask-2)"></path>
            </g>
            <path d="M12.3623149,11.0679342 C12.3623149,10.4644823 11.8732166,9.975384 11.2697647,9.975384 C10.6663128,9.975384 10.1772144,10.4644823 10.1772144,11.0679342 L10.1772144,12.3316506 C10.1772144,12.683816 9.89060211,12.9704283 9.53843676,12.9704283 L6.49532024,12.9704283 C5.89186834,12.9704283 5.40277003,13.4591624 5.40277003,14.0629785 C5.40277003,14.6664304 5.89186834,15.1555287 6.49532024,15.1555287 L9.53843676,15.1555287 C11.0953208,15.1555287 12.3623149,13.8885347 12.3623149,12.3316506 L12.3623149,11.0679342 Z" id="Fill-4" fill="#516983"></path>
            <path d="M20.9611584,11.0679342 C20.9611584,10.4644823 20.4720601,9.975384 19.8686082,9.975384 C19.2651563,9.975384 18.776058,10.4644823 18.776058,11.0679342 L18.776058,12.3316506 C18.776058,12.683816 18.4894457,12.9704283 18.1372803,12.9704283 L15.0941638,12.9704283 C14.4907119,12.9704283 14.0016136,13.4591624 14.0016136,14.0629785 C14.0016136,14.6664304 14.4907119,15.1555287 15.0941638,15.1555287 L18.1372803,15.1555287 C19.6941644,15.1555287 20.9611584,13.8885347 20.9611584,12.3316506 L20.9611584,11.0679342 Z" id="Fill-6" fill="#516983"></path>
            <path d="M10.1772144,17.3604407 L10.1772144,18.6245213 C10.1772144,18.9763225 9.89060211,19.263299 9.53843676,19.263299 L6.49532024,19.263299 C5.89186834,19.263299 5.40277003,19.7520331 5.40277003,20.3558492 C5.40277003,20.9593011 5.89186834,21.4483994 6.49532024,21.4483994 L9.53843676,21.4483994 C11.0953208,21.4483994 12.3623149,20.1814054 12.3623149,18.6245213 L12.3623149,17.3604407 C12.3623149,16.7569888 11.8732166,16.2678905 11.2697647,16.2678905 C10.6663128,16.2678905 10.1772144,16.7569888 10.1772144,17.3604407" id="Fill-8" fill="#516983"></path>
            <path d="M18.776058,17.3604407 L18.776058,18.6245213 C18.776058,18.9763225 18.4894457,19.263299 18.1372803,19.263299 L15.0941638,19.263299 C14.4907119,19.263299 14.0016136,19.7520331 14.0016136,20.3558492 C14.0016136,20.9593011 14.4907119,21.4483994 15.0941638,21.4483994 L18.1372803,21.4483994 C19.6941644,21.4483994 20.9611584,20.1814054 20.9611584,18.6245213 L20.9611584,17.3604407 C20.9611584,16.7569888 20.4720601,16.2678905 19.8686082,16.2678905 C19.2651563,16.2678905 18.776058,16.7569888 18.776058,17.3604407" id="Fill-10" fill="#516983"></path>
        </g>
    </g>
</svg>