<?xml version="1.0" encoding="UTF-8"?>
<svg width="34px" height="39px" viewBox="0 0 34 39" version="1.1" xmlns="http://www.w3.org/2000/svg" xmlns:xlink="http://www.w3.org/1999/xlink">
    <title>icon_speciality</title>
    <defs>
        <polygon id="path-1" points="-3.1815486e-15 1.5907743e-15 13.8066394 1.5907743e-15 13.8066394 13.9412422 -3.1815486e-15 13.9412422"></polygon>
        <polygon id="path-3" points="0 0 13.8071959 0 13.8071959 13.9410144 0 13.9410144"></polygon>
    </defs>
    <g id="Page-1" stroke="none" stroke-width="1" fill="none" fill-rule="evenodd">
        <g id="Patient-Video-Visit-5" transform="translate(-338.000000, -1021.000000)">
            <g id="Group-6" transform="translate(338.000000, 957.000000)">
                <g id="icon_speciality" transform="translate(0.000000, 64.000000)">
                    <path d="M16.9201638,19.5664322 C13.7764187,19.5664322 11.219691,17.008809 11.219691,13.8655117 C11.219691,10.7217665 13.7764187,8.16459112 16.9201638,8.16459112 C20.063909,8.16459112 22.6210844,10.7217665 22.6210844,13.8655117 C22.6210844,17.008809 20.063909,19.5664322 16.9201638,19.5664322 M25.3076633,13.8655117 C25.3076633,9.24056599 21.5451095,5.47801216 16.9201638,5.47801216 C12.2956659,5.47801216 8.53311209,9.24056599 8.53311209,13.8655117 C8.53311209,18.4904573 12.2956659,22.2530112 16.9201638,22.2530112 C21.5451095,22.2530112 25.3076633,18.4904573 25.3076633,13.8655117" id="Fill-1" fill="#192B4E"></path>
                    <path d="M16.9206116,23.6111664 C15.9274729,23.6111664 14.9665732,24.0244518 14.2832866,24.7449027 C13.9125387,25.1362477 13.4755218,25.0498294 13.3044763,24.993859 C13.1334308,24.9383364 12.7286529,24.7516192 12.6583541,24.2174377 C12.529846,23.2328065 11.9956646,22.3336981 11.1923775,21.7502627 C10.3890904,21.1663795 9.36863814,20.9353337 8.39251445,21.1175734 C7.86460169,21.2129469 7.56012274,20.8883186 7.45400287,20.7432433 C7.34833077,20.5981681 7.13071787,20.2086141 7.38818169,19.7348807 C7.86236287,18.8626381 7.95818419,17.8206932 7.65146642,16.8763607 C7.34474866,15.932476 6.65474563,15.1466516 5.75877155,14.7199333 C5.27160523,14.487992 5.21921694,14.0451542 5.21921694,13.8656012 C5.21921694,13.6856004 5.27160523,13.2432104 5.75877155,13.0112691 C6.65474563,12.5845508 7.34474866,11.7982787 7.65146642,10.8539462 C7.95818419,9.9096137 7.86236287,8.86811659 7.38818169,7.99587396 C7.13071787,7.52214053 7.34833077,7.13303435 7.45400287,6.98751132 C7.55967498,6.84198829 7.86504945,6.51512119 8.39251445,6.61362908 C9.36953367,6.7945254 10.3895381,6.56437514 11.1923775,5.98049198 C11.9956646,5.39705658 12.529846,4.49750039 12.6583541,3.51421249 C12.7286529,2.97913552 13.1334308,2.79241828 13.3044763,2.73689565 C13.4750741,2.68092525 13.9120909,2.59450696 14.2832866,2.98585196 C14.9665732,3.70630289 15.9274729,4.12003605 16.9206116,4.12003605 C17.9133025,4.12003605 18.8742023,3.70630289 19.5574888,2.98585196 C19.9286845,2.59495473 20.3657013,2.68137302 20.5362991,2.73689565 C20.7068969,2.79241828 21.1116748,2.97913552 21.1819736,3.51376473 C21.3109294,4.49839592 21.8455586,5.39750434 22.6483979,5.98093974 C23.451685,6.56437514 24.4712418,6.79407764 25.448261,6.61362908 C25.9739349,6.51467343 26.2811004,6.84198829 26.3867725,6.98751132 C26.4924447,7.13303435 26.7100576,7.52214053 26.4530415,7.99542619 C25.9784125,8.86722107 25.8821435,9.90916594 26.1888612,10.8534984 C26.495579,11.7978309 27.185582,12.5845508 28.0820039,13.0112691 C28.5691702,13.2432104 28.6215585,13.6856004 28.6215585,13.8656012 C28.6215585,14.0451542 28.5691702,14.487992 28.0820039,14.7199333 C27.185582,15.1466516 26.495579,15.9329237 26.1888612,16.8772562 C25.8821435,17.8215887 25.9784125,18.8630858 26.4525937,19.7348807 C26.7100576,20.2086141 26.4924447,20.5981681 26.3867725,20.7432433 C26.2806527,20.8887664 25.9743827,21.216529 25.448261,21.1175734 C24.472585,20.9357815 23.4521328,21.1663795 22.6488457,21.7498149 C21.8455586,22.3332503 21.3109294,23.2323588 21.1819736,24.2169899 C21.1116748,24.7516192 20.7068969,24.9383364 20.5362991,24.993859 C20.3652536,25.0493817 19.9282367,25.1362477 19.5574888,24.7449027 C18.8742023,24.0244518 17.9133025,23.6111664 16.9206116,23.6111664 M21.3668998,27.5487956 C22.7124281,27.111331 23.6621337,25.9686394 23.8457166,24.5657974 C23.8797466,24.305647 24.0154189,24.0777356 24.2276586,23.9232573 C24.4398983,23.7696745 24.6982577,23.7105698 24.956617,23.7584805 C26.3460261,24.0181831 27.7287187,23.4669866 28.5602149,22.322504 C29.3921589,21.1775736 29.488428,19.694582 28.8127533,18.4515915 C28.6873797,18.2209935 28.6632005,17.9568132 28.7437978,17.7069614 C28.8252907,17.4575573 29.0003661,17.2583027 29.2372328,17.1454664 C30.5142534,16.5369562 31.3081374,15.2805328 31.3081374,13.8656012 C31.3081374,12.4506696 30.5142534,11.1937984 29.2372328,10.5857361 C29.0003661,10.4728998 28.8252907,10.2731974 28.7437978,10.0233455 C28.6632005,9.77394146 28.6873797,9.5097612 28.8132011,9.27916317 C29.488428,8.03617264 29.3921589,6.55273329 28.5602149,5.40825066 C27.7287187,4.26376802 26.3460261,3.7134671 24.956617,3.9722742 C24.6982577,4.02063263 24.4394506,3.96197565 24.2276586,3.80749736 C24.0154189,3.65346684 23.8797466,3.42510762 23.8457166,3.16495723 C23.6621337,1.76256301 22.7124281,0.619423666 21.3668998,0.181959059 C20.0204759,-0.256401075 18.5804696,0.110764716 17.6070325,1.1379334 L17.6070325,1.1379334 C17.2456876,1.51897985 16.5941922,1.51853209 16.2337429,1.1379334 C15.2603058,0.111212479 13.8194039,-0.255505548 12.4743234,0.181959059 C11.1287951,0.618975902 10.1786417,1.76211525 9.99461104,3.16540499 C9.96058104,3.42510762 9.8249088,3.65346684 9.61311683,3.80749736 C9.40132485,3.96197565 9.14162222,4.02063263 8.8841584,3.9722742 C7.49385379,3.71301934 6.11205668,4.26376802 5.28056049,5.40825066 C4.44861654,6.55273329 4.35234746,8.03617264 5.02757431,9.27916317 C5.15339576,9.5097612 5.17757497,9.77438923 5.09652984,10.0237933 C5.0154847,10.2731974 4.84040931,10.4728998 4.6035426,10.5857361 C3.32652207,11.1937984 2.53263798,12.4506696 2.53263798,13.8656012 C2.53263798,15.2805328 3.32652207,16.5369562 4.6035426,17.1454664 C4.84040931,17.2583027 5.0154847,17.4575573 5.09652984,17.7069614 C5.17757497,17.9568132 5.15339576,18.2209935 5.02757431,18.4515915 C4.35234746,19.694582 4.44861654,21.1775736 5.28056049,22.322504 C6.11160892,23.4669866 7.49161498,24.0181831 8.8841584,23.7584805 C9.14162222,23.7105698 9.40087709,23.7696745 9.61311683,23.9232573 C9.8249088,24.0777356 9.96058104,24.305647 9.99461104,24.5657974 C10.1786417,25.9690872 11.1287951,27.1117788 12.4743234,27.5487956 C13.8180607,27.9853647 15.259858,27.6195422 16.2337429,26.5928213 C16.5941922,26.2126703 17.2456876,26.2122226 17.6070325,26.5928213 C18.3091251,27.3334215 19.2534577,27.7301397 20.2304769,27.7301397 C20.608389,27.7301397 20.9912265,27.6705872 21.3668998,27.5487956" id="Fill-3" fill="#192B4E"></path>
                    <g id="Group-7" transform="translate(20.193361, 24.420720)">
                        <mask id="mask-2" fill="white">
                            <use xlink:href="#path-1"></use>
                        </mask>
                        <g id="Clip-6"></g>
                        <path d="M9.13257409,0.62252701 C8.73451264,-0.00299812432 7.90525526,-0.187924309 7.27793908,0.209241613 C6.65196618,0.607303062 6.46704,1.43745596 6.86510144,2.06387662 L10.0442199,7.06628664 L7.81838921,7.10434651 C7.31420789,7.11285401 6.85748947,7.4034523 6.63539894,7.85614085 L5.65614091,9.85450783 L2.47747024,4.85209782 C2.07940879,4.22657268 1.25015142,4.04209426 0.622835236,4.43881242 C-0.00313766084,4.83687387 -0.188063846,5.66747453 0.20954984,6.29344743 L4.6741963,13.3184036 C4.92180933,13.7079576 5.35031868,13.9412422 5.80793262,13.9412422 C5.8325596,13.9412422 5.85763434,13.9403467 5.88226131,13.9390034 C6.36718881,13.9125854 6.80062355,13.6255692 7.01465434,13.1890001 L8.68660198,9.77614928 L12.4863202,9.71167139 C12.9721432,9.70316389 13.4154287,9.4331627 13.6460267,9.00510112 C13.8766248,8.57703954 13.8578187,8.05763428 13.5972205,7.64748322 L9.13257409,0.62252701 Z" id="Fill-5" fill="#192B4E" mask="url(#mask-2)"></path>
                    </g>
                    <g id="Group-10" transform="translate(0.000000, 24.018857)">
                        <mask id="mask-4" fill="white">
                            <use xlink:href="#path-3"></use>
                        </mask>
                        <g id="Clip-9"></g>
                        <path d="M13.1841624,4.43903236 C12.5581895,4.04186644 11.7284843,4.2258971 11.3295273,4.85231776 L8.15040891,9.85472778 L7.17115088,7.85591303 C6.94906036,7.40277671 6.49234193,7.11262619 5.98816062,7.10367092 L3.76277771,7.06561105 L6.94234391,2.0636488 C7.33995759,1.4376759 7.15503141,0.60707524 6.52905851,0.209461555 C5.90263785,-0.187704368 5.07338048,-0.00367370935 4.6744235,0.622746951 L0.209329277,7.6472554 C-0.0512688818,8.05740645 -0.0700749345,8.57636396 0.160523093,9.00442554 C0.39112112,9.43248712 0.834406648,9.70293607 1.32022968,9.7109958 L5.11994785,9.77592146 L6.79234325,13.1887723 C7.00592628,13.6253413 7.43891325,13.9119098 7.92428852,13.9387756 C7.94936325,13.9401188 7.97399023,13.9410144 7.9986172,13.9410144 C8.45623115,13.9410144 8.88474049,13.707282 9.13235352,13.3181758 L13.5974477,6.29366737 C13.9955092,5.66724671 13.8101353,4.83709381 13.1841624,4.43903236" id="Fill-8" fill="#192B4E" mask="url(#mask-4)"></path>
                    </g>
                </g>
            </g>
        </g>
    </g>
</svg>