<?xml version="1.0" encoding="UTF-8"?>
<svg width="34px" height="34px" viewBox="0 0 34 34" version="1.1" xmlns="http://www.w3.org/2000/svg" xmlns:xlink="http://www.w3.org/1999/xlink">
    <title>icon_language</title>
    <defs>
        <polygon id="path-1" points="0 0 34 0 34 33.9998213 0 33.9998213"></polygon>
    </defs>
    <g id="Page-1" stroke="none" stroke-width="1" fill="none" fill-rule="evenodd">
        <g id="Patient-Video-Visit-5" transform="translate(-981.000000, -1023.000000)">
            <g id="Group-6" transform="translate(338.000000, 957.000000)">
                <g id="icon_language" transform="translate(643.000000, 66.000000)">
                    <mask id="mask-2" fill="white">
                        <use xlink:href="#path-1"></use>
                    </mask>
                    <g id="Clip-2"></g>
                    <path d="M22.8975863,30.0434967 C23.7093119,28.7685022 24.3955037,27.2285913 24.9222095,25.4880944 L28.5242698,25.4880944 C27.0763872,27.4483871 25.1402184,29.0258242 22.8975863,30.0434967 L22.8975863,30.0434967 Z M5.47608761,25.4880944 L9.07770113,25.4880944 C9.60485369,27.2285913 10.2905988,28.7685022 11.1027711,30.0434967 C8.86013901,29.0258242 6.9239702,27.4483871 5.47608761,25.4880944 L5.47608761,25.4880944 Z M11.1027711,3.95614595 C10.3607369,5.1216892 9.72234617,6.50613478 9.21574362,8.0652555 L5.82186395,8.0652555 C7.22641281,6.31135638 9.03347392,4.89563903 11.1027711,3.95614595 L11.1027711,3.95614595 Z M28.1784934,8.0652555 L24.7846138,8.0652555 C24.2780112,6.50613478 23.6396205,5.1216892 22.8975863,3.95614595 C24.9664367,4.89563903 26.7739446,6.31135638 28.1784934,8.0652555 L28.1784934,8.0652555 Z M26.0739038,15.6598263 C26.0046592,13.9300511 25.8031797,12.280689 25.4864415,10.7456922 L29.8787838,10.7456922 C30.6150104,12.2552249 31.0921282,13.9126283 31.2551881,15.6598263 L26.0739038,15.6598263 Z M18.3403971,22.8076576 L18.3403971,18.3402631 L23.388553,18.3402631 C23.3139475,19.8484555 23.1151484,21.3664761 22.8091319,22.8076576 L18.3403971,22.8076576 Z M18.3403971,30.9919245 L18.3403971,25.4880944 L22.0822868,25.4880944 C21.1910416,28.1332387 19.8995178,30.217725 18.3403971,30.9919245 L18.3403971,30.9919245 Z M15.6599603,25.4880944 L15.6599603,30.9919245 C14.1008396,30.217725 12.8093158,28.1332387 11.9180706,25.4880944 L15.6599603,25.4880944 Z M10.6118044,18.3402631 L15.6599603,18.3402631 L15.6599603,22.8076576 L11.1907788,22.8076576 C10.885209,21.3664761 10.6864099,19.8484555 10.6118044,18.3402631 L10.6118044,18.3402631 Z M2.7451693,18.3402631 L7.92645355,18.3402631 C7.98899707,19.9029577 8.15786459,21.4008751 8.42367456,22.8076576 L3.91562668,22.8076576 C3.29733927,21.4196381 2.89259332,19.9172533 2.7451693,18.3402631 L2.7451693,18.3402631 Z M15.6599603,10.7456922 L15.6599603,15.6598263 L10.6118044,15.6598263 C10.6944512,13.9948283 10.9276492,12.3173217 11.2895082,10.7456922 L15.6599603,10.7456922 Z M15.6599603,3.00771808 L15.6599603,8.0652555 L12.0748762,8.0652555 C12.9576333,5.63320588 14.1897408,3.7381371 15.6599603,3.00771808 L15.6599603,3.00771808 Z M22.7108492,10.7456922 C23.0727082,12.3173217 23.3059062,13.9948283 23.388553,15.6598263 L18.3403971,15.6598263 L18.3403971,10.7456922 L22.7108492,10.7456922 Z M18.3403971,8.0652555 L18.3403971,3.00771808 C19.8106166,3.7381371 21.0422773,5.63320588 21.9254812,8.0652555 L18.3403971,8.0652555 Z M4.12112683,10.7456922 L8.51346919,10.7456922 C8.19717766,12.280689 7.99569816,13.9300511 7.92645355,15.6598263 L2.7451693,15.6598263 C2.9082292,13.9126283 3.38534695,12.2552249 4.12112683,10.7456922 L4.12112683,10.7456922 Z M30.0798166,22.8174859 C30.0458644,22.8148055 30.0141459,22.8076576 29.9797469,22.8076576 L25.5766828,22.8076576 C25.8420461,21.4008751 26.0113603,19.9029577 26.0739038,18.3402631 L31.2551881,18.3402631 C31.1073173,19.921274 30.7007844,21.4272327 30.0798166,22.8174859 L30.0798166,22.8174859 Z M17.0001787,-0.000178695784 C7.62624463,-0.000178695784 -4.46739459e-05,7.62611061 -4.46739459e-05,17.0000447 C-4.46739459e-05,26.373532 7.62624463,33.9998213 17.0001787,33.9998213 C26.3741128,33.9998213 34.0004021,26.373532 34.0004021,17.0000447 C34.0004021,7.62611061 26.3741128,-0.000178695784 17.0001787,-0.000178695784 L17.0001787,-0.000178695784 Z" id="Fill-1" fill="#192B4E" mask="url(#mask-2)"></path>
                </g>
            </g>
        </g>
    </g>
</svg>