<?xml version="1.0" encoding="UTF-8"?>
<svg width="34px" height="30px" viewBox="0 0 34 30" version="1.1" xmlns="http://www.w3.org/2000/svg" xmlns:xlink="http://www.w3.org/1999/xlink">
    <title>icon_education</title>
    <defs>
        <polygon id="path-1" points="0 0 34 0 34 29.3374541 0 29.3374541"></polygon>
    </defs>
    <g id="Page-1" stroke="none" stroke-width="1" fill="none" fill-rule="evenodd">
        <g id="Patient-Video-Visit-5" transform="translate(-338.000000, -1180.000000)">
            <g id="Group-6" transform="translate(338.000000, 957.000000)">
                <g id="icon_education" transform="translate(0.000000, 223.000000)">
                    <mask id="mask-2" fill="white">
                        <use xlink:href="#path-1"></use>
                    </mask>
                    <g id="Clip-2"></g>
                    <path d="M30.9230212,21.5598774 L18.5386945,25.6681569 L18.5386945,7.77757667 L30.9230212,3.66981001 L30.9230212,21.5598774 Z M3.0768762,3.66981001 L15.4617157,7.77757667 L15.4617157,25.6681569 L3.0768762,21.5598774 L3.0768762,3.66981001 Z M33.3620397,0.290774494 C32.9610068,0.00153848938 32.4451001,-0.077437299 31.9773993,0.0779501288 L17.0002051,5.04573235 L2.02301097,0.0779501288 C1.55428454,-0.0769244692 1.0388906,0.00153848938 0.637857699,0.290774494 C0.237337629,0.580010498 -0.000102565959,1.04463429 -0.000102565959,1.53848938 L-0.000102565959,22.6706667 C-0.000102565959,23.3337557 0.424520504,23.9219714 1.05427549,24.131206 L16.515581,29.2595039 C16.5181451,29.2605296 16.5201964,29.2605296 16.5227606,29.2610424 C16.5750692,29.2784786 16.6294292,29.2887352 16.6832763,29.3005303 C16.7089178,29.3056586 16.7340465,29.3143767 16.759688,29.3184794 C16.8391766,29.3307873 16.919178,29.3374541 17.0002051,29.3374541 C17.0807194,29.3374541 17.1607209,29.3307873 17.2396966,29.3184794 C17.2709793,29.3133511 17.3012362,29.3036073 17.3314932,29.2964277 C17.380212,29.2856583 17.4289308,29.2769402 17.4761112,29.2615553 C17.4786753,29.2605296 17.4817523,29.2605296 17.4843165,29.2595039 L32.9456219,24.131206 C33.5753769,23.9219714 34,23.3337557 34,22.6706667 L34,1.53848938 C34,1.04463429 33.7625598,0.580010498 33.3620397,0.290774494 L33.3620397,0.290774494 Z" id="Fill-1" fill="#192B4E" mask="url(#mask-2)"></path>
                </g>
            </g>
        </g>
    </g>
</svg>