<?xml version="1.0" encoding="UTF-8"?>
<svg width="34px" height="39px" viewBox="0 0 34 39" version="1.1" xmlns="http://www.w3.org/2000/svg" xmlns:xlink="http://www.w3.org/1999/xlink">
    <title>icon_gender</title>
    <defs>
        <polygon id="path-1" points="0 0 34 0 34 38.811382 0 38.811382"></polygon>
    </defs>
    <g id="Page-1" stroke="none" stroke-width="1" fill="none" fill-rule="evenodd">
        <g id="Patient-Video-Visit-5" transform="translate(-981.000000, -1113.000000)">
            <g id="Group-6" transform="translate(338.000000, 957.000000)">
                <g id="icon_gender" transform="translate(643.000000, 156.000000)">
                    <mask id="mask-2" fill="white">
                        <use xlink:href="#path-1"></use>
                    </mask>
                    <g id="Clip-2"></g>
                    <path d="M17,3.54247855 C20.931298,3.54247855 24.1298322,6.74101282 24.1298322,10.6723108 C24.1298322,14.6036088 20.931298,17.802143 17,17.802143 C13.068702,17.802143 9.87016776,14.6036088 9.87016776,10.6723108 C9.87016776,6.74101282 13.068702,3.54247855 17,3.54247855 M24.697857,18.0454135 C26.5353756,16.1270015 27.672606,13.5319197 27.672606,10.6723108 C27.672606,4.78717307 22.8845473,-0.000295231149 17,-0.000295231149 C11.1154527,-0.000295231149 6.32739398,4.78717307 6.32739398,10.6723108 C6.32739398,13.5319197 7.46462436,16.1270015 9.30214303,18.0454135 C3.99861068,19.1436734 0,23.8502483 0,29.4744017 L0,37.0399951 C0,38.0189816 0.792990865,38.811382 1.77138689,38.811382 C2.74978292,38.811382 3.54277378,38.0189816 3.54277378,37.0399951 L3.54277378,29.4744017 C3.54277378,24.991612 7.19005939,21.3449168 11.6728492,21.3449168 L22.3271508,21.3449168 C26.8099406,21.3449168 30.4572262,24.991612 30.4572262,29.4744017 L30.4572262,32.7798097 C30.4572262,34.152044 29.3400716,35.2686082 27.9672467,35.2686082 L8.09878087,35.2686082 C7.1209753,35.2686082 6.32739398,36.0615991 6.32739398,37.0399951 C6.32739398,38.0189816 7.1209753,38.811382 8.09878087,38.811382 L27.9672467,38.811382 C31.2939113,38.811382 34,36.1052933 34,32.7798097 L34,29.4744017 C34,23.8502483 30.0013893,19.1436734 24.697857,18.0454135" id="Fill-1" fill="#192B4E" mask="url(#mask-2)"></path>
                </g>
            </g>
        </g>
    </g>
</svg>